PathFileType	4	(X/Y/Z)	D:\TRACE\spot_10-12-23\spot_arm_body_motion_3_8-v60.trc
DataRate	CameraRate	NumFrames	NumMarkers	Units	OrigDataRate	OrigDataStartFrame	OrigNumFrames
100.00	100.00	      31	9	mm	100.00	5251	      7000
Frame#	Time	front left toe			Front right toe			aft left toe			aft right toe			Arm			FL body			FR body			AL Body			AR Body			
		X1	Y1	Z1	X2	Y2	Z2	X3	Y3	Z3	X4	Y4	Z4	X5	Y5	Z5	X6	Y6	Z6	X7	Y7	Z7	X8	Y8	Z8	X9	Y9	Z9	

5251	52.500	-191.53281	191.96997	-407.33777	217.86858	38.44006	-467.27414	-119.68347	6.26377	233.78760	231.86444	12.38753	142.08008	-18.22855	911.90479	-655.05438	-68.94300	631.48065	-423.84988	83.32142	638.65289	-430.69305	-29.51083	527.08685	453.18564	120.51591	528.01233	448.82520	
5252	52.510	-195.09814	171.77754	-399.74426	215.93022	36.52447	-468.26495	-120.07673	6.18849	233.50797	231.23738	11.99743	142.12892	-19.40791	912.70844	-655.29742	-70.91765	630.11743	-424.79208	81.55431	637.26819	-431.64771	-31.06462	527.55890	452.91501	119.31132	528.40735	448.58075	
5253	52.520	-198.14691	153.01923	-389.79797	216.11288	35.90160	-468.31122	-119.79045	6.23136	233.41954	231.13033	11.12407	141.80730	-20.23377	914.03278	-655.10889	-72.34810	628.92944	-424.97540	79.58366	635.95435	-431.62091	-32.97733	527.85468	452.19080	117.71783	528.71350	448.01178	
5254	52.530	-199.90208	133.97116	-378.56845	215.69501	35.57155	-468.93027	-119.81386	6.59885	233.16377	231.54483	12.39651	141.51810	-21.23049	915.21356	-654.39813	-74.61400	628.09509	-425.57285	77.70535	635.15051	-432.93958	-34.18688	528.26941	451.85410	116.27732	528.85687	447.22833	
5255	52.540	-203.89774	114.72682	-367.24689	215.41750	35.39266	-469.29532	-119.91855	6.97946	232.91888	232.04414	11.44103	141.84041	-21.41078	916.57043	-653.87006	-76.96547	627.84808	-426.14432	75.13763	634.67548	-433.43854	-35.60512	528.17035	451.53915	114.53809	528.86969	446.60620	
5256	52.550	-206.37354	97.83345	-359.29654	215.05832	35.20805	-469.66043	-119.77228	7.15354	232.81877	232.65929	11.48183	141.69667	-21.12458	917.53406	-652.80890	-79.39972	627.26733	-426.10324	72.32367	633.80334	-434.14490	-36.81772	528.36255	451.32047	113.22163	528.67676	446.31238	
5257	52.560	-209.37692	79.26820	-354.45523	216.38922	36.98876	-469.73117	-119.70744	7.58689	232.63013	231.87076	12.64283	140.94363	-20.73548	918.13074	-652.26617	-82.01402	627.06879	-426.45508	70.33723	633.47736	-434.23553	-38.02726	528.66620	451.15256	112.58398	528.72357	446.59805	
5258	52.570	-213.08881	60.50708	-353.39636	216.19899	36.78033	-469.67026	-119.47066	7.88081	232.62222	232.44032	11.68197	141.20651	-20.34709	918.54883	-651.67468	-84.57307	626.89685	-426.60864	67.76223	633.49615	-434.44519	-40.34843	528.14874	450.83102	110.08835	528.78418	445.44238	
5259	52.580	-213.42693	44.09080	-354.60059	216.26315	36.24503	-469.86694	-119.30277	7.84697	232.42148	232.68811	11.92168	140.75331	-19.58910	918.42932	-651.17316	-86.86732	626.60773	-426.69058	65.35181	633.20685	-434.52255	-41.96300	528.11243	450.73764	108.16565	528.33368	445.29739	
5260	52.590	-213.07057	28.70856	-355.24283	216.35727	35.84223	-469.89676	-119.55368	7.50423	232.21506	232.62126	13.14571	140.93558	-19.01395	918.09021	-650.95636	-89.08884	626.75330	-427.00723	63.21459	633.22998	-434.88223	-44.33918	527.51654	450.35464	105.88396	528.06372	445.08777	
5261	52.600	-213.96118	24.43100	-358.59686	217.11214	34.97631	-470.00558	-119.38668	7.17582	231.78601	232.55014	12.60163	140.72330	-19.37194	917.63025	-650.74286	-91.03683	626.59344	-426.99472	61.37992	633.30219	-434.84586	-47.17606	527.15680	450.05270	103.11538	527.68439	445.11966	
5262	52.610	-215.83212	25.23333	-353.44937	215.97801	36.03452	-471.06400	-120.33416	6.91967	231.73349	232.41658	13.33544	140.35365	-19.67757	916.88458	-650.49176	-93.04688	628.27338	-427.24387	59.42411	634.64575	-434.65857	-50.09205	526.81311	449.89270	100.82922	527.00049	445.43118	
5263	52.620	-214.80635	25.38316	-355.66644	215.24731	35.40108	-470.91574	-122.05969	5.31068	232.42690	230.45920	14.70763	140.21530	-19.99644	916.42322	-650.46820	-95.08675	629.68097	-427.07477	57.28994	635.74939	-435.15579	-52.38990	526.77972	449.85321	97.69054	526.68475	444.71246	
5264	52.630	-214.66116	25.41504	-355.34155	215.67180	35.32322	-470.81186	-122.04845	5.61393	231.81683	230.30469	14.75530	140.52386	-20.26247	916.25208	-650.29724	-96.67275	630.86194	-427.61044	55.92576	636.37030	-434.85446	-55.46431	527.58783	449.48087	95.62461	526.88287	445.44815	
5265	52.640	-214.92587	24.64789	-355.77899	216.98100	34.35438	-470.95441	-121.92056	6.18535	231.12146	230.17334	14.77291	141.05986	-20.58135	916.00635	-650.30646	-98.07758	631.60095	-428.01813	54.47717	636.82611	-435.28302	-58.06499	528.53680	449.16357	91.96769	527.80682	444.55847	
5266	52.650	-214.74876	23.95564	-356.40695	215.81232	33.92975	-471.99005	-122.08083	5.83526	231.14891	230.50958	15.48535	141.14117	-21.07652	915.44501	-650.34943	-99.22821	632.45856	-428.57907	53.23597	637.60468	-435.90567	-60.54913	529.73480	448.76730	90.28793	528.70087	444.41339	
5267	52.660	-214.63599	23.67906	-356.63647	215.73375	33.39502	-471.80774	-122.34302	5.85067	230.83733	229.88824	15.26466	140.21849	-21.92291	914.71942	-651.29834	-100.77962	633.14923	-429.52057	52.08063	637.98822	-436.09488	-62.50471	531.14343	448.29736	87.59059	530.03400	443.61606	
5268	52.670	-214.52580	23.26393	-356.74344	216.09937	32.55442	-472.04486	-122.27045	6.34490	230.42146	229.76463	15.54418	140.24010	-22.46141	914.06183	-651.85028	-101.64967	633.40826	-429.95941	50.88500	638.65668	-436.68979	-64.48969	532.60669	447.46066	86.14175	531.82501	443.58527	
5269	52.680	-214.67393	22.75003	-357.08246	215.95732	32.43524	-472.11261	-122.42592	6.67430	230.00607	230.18042	16.09588	140.43202	-24.12909	913.64832	-652.38953	-102.86047	633.90045	-431.03607	49.72001	639.13422	-437.94489	-65.97955	534.01440	446.92496	84.23905	533.28790	442.70071	
5270	52.690	-214.31406	21.91304	-357.36490	215.09787	31.38331	-472.66202	-122.53714	6.63699	229.67163	229.85875	15.59040	139.77951	-25.10671	913.24628	-652.87146	-104.18298	633.99603	-432.09546	48.59718	639.18579	-438.52472	-67.01148	535.57996	446.06451	83.12066	535.04596	442.01459	
5271	52.700	-214.28168	21.13878	-357.59607	215.91057	31.36557	-473.18301	-122.51570	6.51577	229.38911	229.85649	16.00282	139.21027	-27.35510	912.97028	-653.67401	-105.12566	633.93988	-432.86710	47.12384	639.55090	-439.78210	-68.26733	537.15405	444.89273	81.91759	536.94818	440.81714	
5272	52.710	-215.05457	20.74479	-357.66269	216.00479	31.03072	-473.36105	-122.52576	6.55169	229.15308	229.88785	16.18331	138.87373	-28.58273	912.63806	-654.08643	-106.55434	633.84241	-434.02411	45.70382	639.61548	-440.93027	-68.77586	539.02734	444.29248	81.41382	538.64789	439.80444	
5273	52.720	-215.24113	20.27972	-357.79358	215.75586	30.48472	-473.81311	-121.99170	7.89458	229.43697	229.93187	16.17652	138.53537	-29.50035	912.58966	-654.77795	-108.19431	633.85535	-435.13956	44.24680	639.82513	-442.34552	-69.20480	541.01447	443.05002	81.14308	540.65021	438.76279	
5274	52.730	-215.29529	19.72183	-357.95572	215.54005	30.18518	-474.08569	-121.69545	8.42047	229.14453	230.01817	16.33012	138.09236	-29.96374	912.53296	-655.31140	-109.45213	633.74219	-436.20135	42.66752	639.77234	-443.71252	-69.31375	542.94470	442.03696	81.30218	542.73462	437.62817	
5275	52.740	-215.47485	19.08987	-358.03516	215.17340	29.80197	-474.42990	-121.51762	8.59313	228.96368	230.18646	16.57124	137.66078	-30.08072	912.43909	-655.89563	-110.87062	633.77026	-437.60434	41.48348	639.70728	-445.28561	-69.36193	544.86664	440.97894	80.70516	544.55560	436.15329	
5276	52.750	-215.64636	18.73251	-358.30038	214.32480	28.78695	-475.13577	-121.41299	8.64840	228.73384	230.48344	16.62651	137.37616	-29.80754	912.19647	-656.40613	-112.27259	633.47217	-438.85559	40.04549	639.77710	-446.63077	-69.75333	546.53009	439.75433	80.57549	546.44086	434.71741	
5277	52.760	-215.68625	18.19125	-358.43213	214.99850	29.12762	-475.04495	-121.31409	8.85177	228.55251	230.60609	16.82946	136.92859	-29.20406	912.03503	-656.93329	-113.30396	633.31763	-440.15552	38.93388	639.49493	-447.95255	-69.79125	548.50500	438.65704	80.80674	548.52606	433.79156	
5278	52.770	-215.25432	17.49019	-358.63486	215.46649	28.80327	-475.30682	-121.26141	9.01023	228.37555	230.65489	16.84180	136.67668	-28.90638	911.89563	-657.33746	-114.06851	633.35986	-441.44012	38.11255	639.46912	-449.54697	-69.98337	550.33002	437.46344	80.46016	550.29395	432.15234	
5279	52.780	-215.57635	17.36699	-358.80109	215.02608	28.25051	-475.35907	-121.17877	9.16939	228.09570	230.72028	16.78078	136.54323	-28.39721	911.72815	-657.56506	-114.64007	633.36926	-442.87106	37.62305	639.50824	-451.13254	-69.89102	552.09406	436.50992	79.98314	552.09650	430.86353	
5280	52.790	-215.41206	17.17182	-359.08670	214.91957	27.71814	-475.98764	-121.02618	9.20746	227.81856	230.67029	16.96848	136.15860	-27.91412	911.42767	-658.15137	-115.13749	633.46948	-444.54022	37.29737	639.39349	-452.55804	-70.54167	553.86230	434.88010	79.83675	553.78912	429.53613	
5281	52.800	-215.43608	16.91261	-359.36987	215.07065	27.47102	-476.08688	-121.18992	9.24888	227.56441	230.64638	16.88041	136.00967	-27.92910	911.07117	-658.67804	-115.02374	633.26520	-445.93906	37.24756	639.14001	-453.99133	-70.93171	555.56744	433.64685	79.15928	555.37872	428.13605	
